# xmcd
#
# Track frame offsets:
#	150
#	15888
#	40528
#	62396
#	82642
#	106553
#	122541
#	146934
#	161120
#	184126
#	199147
#	221450
#	236962
#	257780
#	273326
#
# Disc length: 3844 seconds
#
# Revision: 2
# Processed by: cddbd v1.5.2PL0 Copyright (c) Steve Scherf et al.
# Submitted via: EasyCDDAExtractor 16.0.6.1
#
DISCID=c10f020f
DTITLE=B.B. King - B-018 Blues On The Bayou
DYEAR=1900
DGENRE=Blues
TTITLE0=Blues Boys Tune
TTITLE1=Bad Case Of Love
TTITLE2=I´ll Survive
TTITLE3=Mean Ole´ World
TTITLE4=Blues Man
TTITLE5=Broken Promise
TTITLE6=Darlin´ What Happend
TTITLE7=Shake It Up And Go
TTITLE8=Blues We Like
TTITLE9=Good Man Gone Bad
TTITLE10=If I Lost You 
TTITLE11=Tell Me Baby
TTITLE12=I Got Some Outside Help-I Don´t Need
TTITLE13=Blues In "G"
TTITLE14=If That Ain´t It I Quit
EXTD=
EXTT0=
EXTT1=
EXTT2=
EXTT3=
EXTT4=
EXTT5=
EXTT6=
EXTT7=
EXTT8=
EXTT9=
EXTT10=
EXTT11=
EXTT12=
EXTT13=
EXTT14=
PLAYORDER=
